{"title":"Iron Man Duology 720p Dual Audio [Eng-Hindi]","uid":7759644,"size":1899642802,"categoryP":"video","categoryS":"hd___movies","magnet":"?xt=urn:btih:72f6419f3872c56803300d6be51ec0971b7de32c&amp;dn=Iron+Man+Duology+720p+Dual+Audio+%5BEng-Hindi%5D&amp;tr=udp%3A%2F%2Ftracker.openbittorrent.com%3A80&amp;tr=udp%3A%2F%2Fopen.demonii.com%3A1337&amp;tr=udp%3A%2F%2Ftracker.coppersurfer.tk%3A6969&amp;tr=udp%3A%2F%2Fexodus.desync.com%3A6969","seeders":1,"leechers":0,"uploader":"worldastro","files":18,"time":1351192301,"description":" &lt;a href=&quot;http://www.postimg.com/49000/photo-48427.jpg&quot; rel=&quot;nofollow&quot; target=&quot;_NEW&quot;&gt;http://www.postimg.com/49000/photo-48427.jpg&lt;/a&gt;\n\nFormat : Matroska\nFormat version : Version 2\nFile size : 906 MiB\nDuration : 2h 6mn\nOverall bit rate : 1 005 Kbps\nMovie name : Iron Man 2008 \nEncoded date : UTC 2011-09-24 05:15:35\nWriting application : mkvmerge v4.9.1 ('Ich will') \nWriting library : libebml v1.2.1 + libmatroska v1.1.1\n\nVideo\nID : 1\nFormat : AVC\nFormat/Info : Advanced Video Codec\nFormat profile : &lt;a class=&quot;__cf_email__&quot; href=&quot;/cdn-cgi/l/email-protection&quot; data-cfemail=&quot;f5bd9c929db5b9c1dbc4&quot;&gt;[email&amp;#160;protected]&lt;/a&gt;&lt;script cf-hash='f9e31' type=&quot;text/javascript&quot;&gt;\n/* &lt;![CDATA[ */!function(){try{var t=&quot;currentScript&quot;in document?document.currentScript:function(){for(var t=document.getElementsByTagName(&quot;script&quot;),e=t.length;e--;)if(t[e].getAttribute(&quot;cf-hash&quot;))return t[e]}();if(t&amp;&amp;t.previousSibling){var e,r,n,i,c=t.previousSibling,a=c.getAttribute(&quot;data-cfemail&quot;);if(a){for(e=&quot;&quot;,r=parseInt(a.substr(0,2),16),n=2;a.length-n;n+=2)i=parseInt(a.substr(n,2),16)^r,e+=String.fromCharCode(i);e=document.createTextNode(e),c.parentNode.replaceChild(e,c)}}}catch(u){}}();/* ]]&gt; */&lt;/script&gt;\nFormat settings, CABAC : Yes\nFormat settings, ReFrames : 8 frames\nMuxing mode : Header stripping\nCodec ID : V_MPEG4/ISO/AVC\nDuration : 2h 6mn\nBit rate : 750 Kbps\nWidth : 1 280 pixels\nHeight : 528 pixels\nDisplay aspect ratio : 2.40:1\nFrame rate : 23.976 fps\nColor space : YUV\nChroma subsampling : 4:2:0\nBit depth : 8 bits\nScan type : Progressive\nBits/(Pixel*Frame) : 0.046\nStream size : 657 MiB (73%)\nWriting library : x264 \n\nAudio #1\nCodec ID/Hint : MP3\nDuration : 2h 6mn\nBit rate mode : Variable\nBit rate : 128 Kbps\nChannel(s) : 2 channels\nMode : Joint stereo\nSampling rate : 48.0 KHz\nStream size : 115 MiB (13%)\nTitle : Henry[~KSRR~]\nLanguage : English\n\nAudio #2\nCodec ID/Hint : MP3\nDuration : 2h 6mn\nBit rate mode : Constant\nBit rate : 128 Kbps\nChannel(s) : 2 channels\nMode : Joint stereo\nSampling rate : 48.0 KHz\nStream size : 115 MiB (13%)\nTitle : Henry[~KSRR~]\nLanguage : Hindi\n\nSCREENS\n &lt;a href=&quot;\nhttp://www.postimg.com/49000/photo-48413.jpg&quot; rel=&quot;nofollow&quot; target=&quot;_NEW&quot;&gt;\nhttp://www.postimg.com/49000/photo-48413.jpg&lt;/a&gt;\n &lt;a href=&quot;\nhttp://www.postimg.com/49000/photo-48414.jpg&quot; rel=&quot;nofollow&quot; target=&quot;_NEW&quot;&gt;\nhttp://www.postimg.com/49000/photo-48414.jpg&lt;/a&gt;\n\n &lt;a href=&quot;\nhttp://www.postimg.com/49000/photo-48415.jpg&quot; rel=&quot;nofollow&quot; target=&quot;_NEW&quot;&gt;\nhttp://www.postimg.com/49000/photo-48415.jpg&lt;/a&gt;\n\n\nFormat : Matroska\nFormat version : Version 2\nFile size : 886 MiB\nDuration : 1h 59mn\nOverall bit rate : 1 038 Kbps\nMovie name : Iron Man 2010 \nEncoded date : UTC 2011-09-26 11:54:06\nWriting application : mkvmerge v4.9.1 ('Ich will') \nWriting library : libebml v1.2.1 + libmatroska v1.1.1\n\nVideo\nID : 1\nFormat : AVC\nFormat/Info : Advanced Video Codec\nFormat profile : &lt;a class=&quot;__cf_email__&quot; href=&quot;/cdn-cgi/l/email-protection&quot; data-cfemail=&quot;8ec6e7e9e6cec2baa0be&quot;&gt;[email&amp;#160;protected]&lt;/a&gt;&lt;script cf-hash='f9e31' type=&quot;text/javascript&quot;&gt;\n/* &lt;![CDATA[ */!function(){try{var t=&quot;currentScript&quot;in document?document.currentScript:function(){for(var t=document.getElementsByTagName(&quot;script&quot;),e=t.length;e--;)if(t[e].getAttribute(&quot;cf-hash&quot;))return t[e]}();if(t&amp;&amp;t.previousSibling){var e,r,n,i,c=t.previousSibling,a=c.getAttribute(&quot;data-cfemail&quot;);if(a){for(e=&quot;&quot;,r=parseInt(a.substr(0,2),16),n=2;a.length-n;n+=2)i=parseInt(a.substr(n,2),16)^r,e+=String.fromCharCode(i);e=document.createTextNode(e),c.parentNode.replaceChild(e,c)}}}catch(u){}}();/* ]]&gt; */&lt;/script&gt;\nFormat settings, CABAC : Yes\nFormat settings, ReFrames : 8 frames\nMuxing mode : Header stripping\nCodec ID : V_MPEG4/ISO/AVC\nDuration : 1h 59mn\nBit rate : 781 Kbps\nWidth : 1 280 pixels\nHeight : 544 pixels\nDisplay aspect ratio : 2.35:1\nFrame rate : 23.976 fps\nColor space : YUV\nChroma subsampling : 4:2:0\nBit depth : 8 bits\nScan type : Progressive\nBits/(Pixel*Frame) : 0.047\nStream size : 650 MiB (73%)\nWriting library : x264 \n\nAudio #1\nCodec ID/Hint : MP3\nDuration : 1h 59mn\nBit rate : 128 Kbps\nChannel(s) : 2 channels\nMode : Joint stereo\nSampling rate : 48.0 KHz\nStream size : 109 MiB (12%)\nTitle : Henry[~KSRR~]\nLanguage : English\n\nAudio #2\nCodec ID/Hint : MP3\nDuration : 1h 59mn\nBit rate : 128 Kbps\nChannel(s) : 2 channels\nMode : Joint stereo\nSampling rate : 48.0 KHz\nStream size : 109 MiB (12%)\nTitle : Henry[~KSRR~]\nLanguage : Hindi\n\nSCREENS \n &lt;a href=&quot;\nhttp://www.postimg.com/49000/photo-48419.jpg&quot; rel=&quot;nofollow&quot; target=&quot;_NEW&quot;&gt;\nhttp://www.postimg.com/49000/photo-48419.jpg&lt;/a&gt;\n &lt;a href=&quot;\nhttp://www.postimg.com/49000/photo-48420.jpg&quot; rel=&quot;nofollow&quot; target=&quot;_NEW&quot;&gt;\nhttp://www.postimg.com/49000/photo-48420.jpg&lt;/a&gt;\n &lt;a href=&quot;\nhttp://www.postimg.com/49000/photo-48421.jpg&quot; rel=&quot;nofollow&quot; target=&quot;_NEW&quot;&gt;\nhttp://www.postimg.com/49000/photo-48421.jpg&lt;/a&gt;","torrent":{"xt":"urn:btih:72f6419f3872c56803300d6be51ec0971b7de32c","amp;dn":"Iron+Man+Duology+720p+Dual+Audio+%5BEng-Hindi%5D","amp;tr":["udp%3A%2F%2Ftracker.openbittorrent.com%3A80","udp%3A%2F%2Fopen.demonii.com%3A1337","udp%3A%2F%2Ftracker.coppersurfer.tk%3A6969","udp%3A%2F%2Fexodus.desync.com%3A6969"],"infoHash":"72f6419f3872c56803300d6be51ec0971b7de32c","infoHashBuffer":{"type":"Buffer","data":[114,246,65,159,56,114,197,104,3,48,13,107,229,30,192,151,27,125,227,44]},"announce":[],"urlList":[]}}